HIERARCHY
ROOT Hips
{
	OFFSET 0.000000 0.000000 0.000000 
	CHANNELS 6 Xposition Yposition Zposition Zrotation Yrotation Xrotation
	JOINT LeftUpLeg
	{
		OFFSET 1.363060 -1.794630 0.839290 
		CHANNELS 3 Zrotation Yrotation Xrotation
		JOINT LeftLeg
		{
			OFFSET 2.448110 -6.726130 0.000000 
			CHANNELS 3 Zrotation Yrotation Xrotation
			JOINT LeftFoot
			{
				OFFSET 2.562200 -7.039590 0.000000 
				CHANNELS 3 Zrotation Yrotation Xrotation
				JOINT LeftToeBase
				{
					OFFSET 0.157640 -0.433110 2.322550 
					CHANNELS 3 Zrotation Yrotation Xrotation
					End Site
					{
						OFFSET 0.000000 0.000000 0.000000 
					}
				}
			}
		}
	}
	JOINT RightUpLeg
	{
		OFFSET -1.305520 -1.794630 0.839290 
		CHANNELS 3 Zrotation Yrotation Xrotation
		JOINT RightLeg
		{
			OFFSET -2.542530 -6.985550 0.000000 
			CHANNELS 3 Zrotation Yrotation Xrotation
			JOINT RightFoot
			{
				OFFSET -2.568260 -7.056230 0.000000 
				CHANNELS 3 Zrotation Yrotation Xrotation
				JOINT RightToeBase
				{
					OFFSET -0.164730 -0.452590 2.363150 
					CHANNELS 3 Zrotation Yrotation Xrotation
					End Site
					{
						OFFSET 0.000000 0.000000 0.000000 
					}
				}
			}
		}
	}
	JOINT Spine
	{
		OFFSET 0.028270 2.035590 -0.193380 
		CHANNELS 3 Zrotation Yrotation Xrotation
		JOINT Spine1
		{
			OFFSET 0.056720 2.048850 -0.042750 
			CHANNELS 3 Zrotation Yrotation Xrotation
			JOINT Neck1
			{
				OFFSET -0.054170 1.746240 0.172020 
				CHANNELS 3 Zrotation Yrotation Xrotation
				JOINT Head
				{
					OFFSET 0.104070 1.761360 -0.123970 
					CHANNELS 3 Zrotation Yrotation Xrotation
					End Site
					{
						OFFSET 0.000000 0.000000 0.000000 
					}
				}
			}
			JOINT LeftArm
			{
				OFFSET 3.362410 1.200890 -0.311210 
				CHANNELS 3 Zrotation Yrotation Xrotation
				JOINT LeftForeArm
				{
					OFFSET 4.983000 -0.000000 -0.000000 
					CHANNELS 3 Zrotation Yrotation Xrotation
					JOINT LeftHand
					{
						OFFSET 3.483560 -0.000000 -0.000000 
						CHANNELS 3 Zrotation Yrotation Xrotation
						JOINT LeftHandIndex1
						{
							OFFSET 0.715260 -0.000000 -0.000000 
							CHANNELS 3 Zrotation Yrotation Xrotation
							End Site
							{
								OFFSET 0.000000 0.000000 0.000000 
							}
						}
					}
				}
			}
			JOINT RightArm
			{
				OFFSET -3.136600 1.374050 -0.404650 
				CHANNELS 3 Zrotation Yrotation Xrotation
				JOINT RightForeArm
				{
					OFFSET -5.241900 -0.000000 -0.000000 
					CHANNELS 3 Zrotation Yrotation Xrotation
					JOINT RightHand
					{
						OFFSET -3.444170 -0.000000 -0.000000 
						CHANNELS 3 Zrotation Yrotation Xrotation
						JOINT RightHandIndex1
						{
							OFFSET -0.622530 -0.000000 -0.000000 
							CHANNELS 3 Zrotation Yrotation Xrotation
							End Site
							{
								OFFSET 0.000000 0.000000 0.000000 
							}
						}
					}
				}
			}
		}
	}
}
MOTION
Frames: 15
Frame Time: 0.041667
-2.625373 17.622849 3.216565 5.164798 46.684609 4.950715 -4.894326 2.002326 -15.101737 4.745459 12.587303 42.011469 1.185507 -1.824823 11.440019 1.435700 -7.575700 -21.432600 -12.565425 30.074353 -27.474193 -5.266216 -12.859899 40.377200 -0.238206 -5.046381 20.574867 -0.796400 5.696200 -15.905500 1.761302 -4.232860 11.828187 6.245694 -1.731535 -4.548678 14.634201 -8.494354 10.680640 5.644400 -4.096000 3.094300 -79.050310 -24.312503 63.157973 148.642406 -41.375700 -109.290676 0.440104 -0.286247 -47.463827 -7.125000 0.000000 0.000000 60.562539 12.503282 6.268972 -151.708112 39.394992 -110.942494 -1.275372 2.127869 3.528090 7.125000 0.000000 0.000000 
-2.626755 17.638840 3.206398 4.692707 46.070449 4.512416 -4.316586 1.312818 -14.822831 4.739363 12.613187 42.015457 1.218979 -1.823659 12.786285 1.291900 -7.201800 -20.314800 -11.887970 29.774975 -28.017612 -5.233399 -12.826652 40.387270 -0.183589 -4.817198 19.536428 -0.773000 5.613800 -15.667800 1.486131 -4.089781 11.761436 5.799948 -1.652186 -4.873146 14.351861 -8.435214 10.894120 5.534300 -4.058900 3.149400 -78.913402 -23.854180 62.898048 148.572990 -41.450595 -109.239246 0.442777 -0.293577 -46.962687 -7.125000 0.000000 0.000000 60.355550 12.902883 7.303202 -151.038257 40.002535 -110.606260 -1.254304 2.138198 3.858542 7.125000 0.000000 0.000000 
-2.615896 17.644171 3.201265 4.816049 45.527890 4.350825 -4.165509 0.490364 -14.253361 4.773914 12.641579 42.146387 1.164777 -1.594061 13.484384 1.068300 -6.570900 -18.450100 -11.543277 29.356105 -28.307778 -5.216553 -12.838848 40.430430 -0.090630 -4.731117 18.295850 -0.756200 5.553800 -15.495200 1.036134 -3.919788 11.840485 5.502823 -1.574640 -5.064673 14.070680 -8.435035 11.039477 5.426000 -4.052200 3.206400 -78.935921 -23.575015 62.879801 148.535749 -41.496067 -109.207396 0.447339 -0.299780 -46.576639 -7.125000 0.000000 0.000000 60.216490 13.090564 8.195597 -150.360019 40.618253 -110.253831 -1.230684 2.166954 4.381254 7.125000 0.000000 0.000000 
-2.598424 17.646540 3.205411 4.966280 45.041393 4.280098 -4.094757 -0.335879 -13.697704 4.841147 12.679395 42.301244 0.966403 -0.867636 13.585769 0.991000 -6.335800 -17.762000 -11.253378 29.117998 -28.547381 -5.236027 -12.864178 40.527122 0.085797 -4.928114 16.941016 -0.781200 5.643000 -15.752000 0.891422 -3.863379 11.951605 5.416382 -1.551016 -5.075636 13.897992 -8.319760 11.201461 5.405900 -3.992400 3.304900 -79.263050 -23.403577 62.695178 148.413504 -41.617176 -109.127258 0.450743 -0.304315 -46.140004 -7.125000 0.000000 0.000000 60.045801 13.223883 9.313709 -149.775210 41.137682 -109.953785 -1.205450 2.196177 4.931897 7.125000 0.000000 0.000000 
-2.584604 17.638840 3.214295 5.158771 44.566224 4.404710 -4.080518 -1.153018 -13.301986 4.921212 12.714339 42.416228 0.629217 0.333198 13.311520 0.984600 -6.316000 -17.704100 -11.142182 29.058270 -28.936947 -5.280160 -12.900574 40.645100 0.299629 -5.332931 15.779528 -0.751800 5.537900 -15.449400 0.974824 -3.937986 12.018438 5.523576 -1.584458 -4.998115 13.681774 -8.045348 11.444849 5.409000 -3.854000 3.452700 -79.761900 -23.235051 62.261790 148.310700 -41.728293 -109.055943 0.456201 -0.306247 -45.646199 -7.125000 0.000000 0.000000 59.858865 13.451446 10.616964 -149.099375 41.725597 -109.598877 -1.174028 2.247261 5.711947 7.125000 0.000000 0.000000 
-2.572660 17.615149 3.228115 5.914548 44.050149 4.902649 -4.472399 -1.975828 -12.828978 4.992477 12.717543 42.507874 0.236138 1.620108 12.695885 0.893400 -6.024500 -16.855400 -11.559240 29.082895 -29.347503 -5.323608 -12.961799 40.743632 0.428031 -5.644219 15.199187 -0.697000 5.336800 -14.871800 0.769947 -3.936465 12.083042 5.791519 -1.590320 -4.868516 13.351648 -7.801944 11.542656 5.343300 -3.732100 3.543200 -80.134715 -22.922487 62.009468 148.314507 -41.750934 -109.047874 0.461232 -0.310488 -45.266839 -7.125000 0.000000 0.000000 59.691893 13.645998 11.620048 -148.368019 42.342731 -109.207965 -1.143694 2.282542 6.156374 7.125000 0.000000 0.000000 
-2.555188 17.582278 3.239072 6.340500 43.583245 5.035286 -4.647698 -2.724650 -12.257948 5.022484 12.703393 42.487461 -0.087760 2.642888 11.987423 0.837400 -5.837400 -16.313300 -11.697706 29.319887 -29.445466 -5.351503 -12.973398 40.797511 0.476256 -5.778461 15.116260 -0.723400 5.434800 -15.153100 0.570228 -3.885222 12.181786 5.883704 -1.572673 -4.810301 12.988998 -7.610950 11.485645 5.238600 -3.638100 3.566900 -80.422130 -22.465450 61.938686 148.355345 -41.744102 -109.060206 0.466069 -0.316695 -44.985578 -7.125000 0.000000 0.000000 59.620810 13.738764 12.487456 -147.842756 42.775330 -108.937157 -1.127673 2.267048 5.932985 7.125000 0.000000 0.000000 
-2.530115 17.538449 3.254076 6.698612 43.276791 5.048704 -4.753048 -3.531581 -11.544188 4.983522 12.649613 42.303439 -0.300738 3.258767 11.215753 0.803700 -5.721600 -15.978900 -11.740071 29.553551 -29.266123 -5.340490 -12.954693 40.785566 0.362608 -5.501411 15.569724 -0.807600 5.735100 -16.017700 0.272094 -3.878830 12.124146 5.865022 -1.572464 -4.958163 12.587525 -7.461691 11.410945 5.116600 -3.570900 3.548200 -80.700338 -21.761106 61.973140 148.319731 -41.813677 -109.024811 0.470124 -0.323637 -44.647587 -7.125000 0.000000 0.000000 59.883698 13.259668 13.526237 -147.619459 43.016698 -108.808951 -1.126234 2.257624 5.876919 7.125000 0.000000 0.000000 
-2.505239 17.482380 3.274707 7.146905 43.013142 5.118230 -4.920917 -4.585232 -10.668221 4.871958 12.551897 41.972549 -0.381713 3.383135 10.221509 0.895000 -6.029600 -16.870300 -11.865549 29.890389 -28.991523 -5.292924 -12.909698 40.721838 0.056603 -4.721004 16.620213 -0.957000 6.229500 -17.451600 -0.281517 -3.814807 11.860303 5.734808 -1.537093 -5.369506 12.279757 -7.374890 11.551700 5.012100 -3.527700 3.574400 -80.885249 -20.802504 62.246538 148.291107 -41.888335 -108.991398 0.472701 -0.331128 -44.249473 -7.125000 0.000000 0.000000 60.537713 12.121785 14.502254 -147.605460 43.162431 -108.760186 -1.137352 2.266086 6.051990 7.125000 0.000000 0.000000 
-2.490432 17.413774 3.294450 7.071945 42.653886 4.990295 -4.702932 -5.666986 -9.937146 4.733602 12.465436 41.639719 -0.219080 2.721579 9.218918 1.438600 -7.583000 -21.454600 -11.723893 30.623980 -28.924886 -5.234759 -12.819644 40.736634 -0.398143 -3.308344 17.625440 -1.180800 6.896600 -19.409500 -0.506731 -3.728690 11.736319 5.578646 -1.496250 -5.569024 12.009504 -7.216216 11.686123 4.926000 -3.442700 3.638100 -81.062377 -19.958901 62.366310 148.375872 -41.858560 -109.026724 0.476004 -0.333711 -43.845404 -7.125000 0.000000 0.000000 61.279730 11.152629 15.367654 -147.590303 43.297643 -108.712653 -1.144025 2.289173 6.010761 7.125000 0.000000 0.000000 
-2.478191 17.331941 3.318931 6.775019 42.322575 4.751289 -4.285998 -6.666857 -9.222032 4.520714 12.356066 41.296707 0.605175 -0.102990 9.824203 1.744800 -8.313000 -23.669000 -11.381250 31.399355 -28.848571 -5.217285 -12.762197 40.974361 -0.815908 -1.647442 17.601653 -1.624500 8.035700 -22.822500 -0.398761 -3.783764 11.880181 5.621923 -1.539156 -5.384567 11.538905 -6.780332 11.411080 4.785600 -3.230000 3.576600 -81.108837 -19.050196 62.041191 148.546747 -41.743812 -109.119865 0.474559 -0.336014 -43.422842 -7.125000 0.000000 0.000000 61.967513 10.564115 16.482781 -147.815251 43.145867 -108.887809 -1.129504 2.239410 5.261051 7.125000 0.000000 0.000000 
-2.459732 17.256031 3.348248 6.990309 42.131523 4.676399 -4.284595 -7.526334 -8.214227 4.412596 12.293509 41.133805 0.964923 -1.423064 10.251668 2.056800 -8.983400 -25.743400 -11.217123 31.878810 -28.405662 -5.285652 -12.803968 41.398322 -0.967090 -0.686076 16.286621 -0.683000 5.283900 -14.720200 -0.505191 -3.919372 11.922797 5.854867 -1.616269 -5.353726 10.905628 -6.239698 11.157361 4.596000 -2.972500 3.469600 -81.064062 -17.784870 61.610673 148.676685 -41.675905 -109.186378 0.471413 -0.342668 -43.040744 -7.125000 0.000000 0.000000 62.784223 9.575087 17.598674 -148.331559 42.759305 -109.248817 -1.097504 2.179237 3.865901 7.125000 0.000000 0.000000 
-2.440187 17.172026 3.383983 7.460660 42.033730 4.760941 -4.471698 -8.353440 -7.209039 4.336583 12.231947 40.911286 0.987755 -1.581873 9.015542 2.735600 -10.254200 -29.803900 -11.193000 32.293944 -27.890493 -5.678667 -12.991821 41.975981 0.561421 -5.133111 12.399251 -1.352700 7.362700 -20.794400 -0.781290 -4.026220 11.939961 6.103891 -1.678427 -5.361860 10.558743 -5.998570 11.419798 4.488300 -2.843300 3.584700 -81.133830 -16.759877 61.324086 148.669254 -41.724232 -109.171722 0.470945 -0.344426 -42.706391 -7.125000 0.000000 0.000000 63.809992 8.162211 18.630209 -148.824607 42.473380 -109.517025 -1.094355 2.179640 3.139673 7.125000 0.000000 0.000000 
-2.426268 17.087725 3.429983 7.550737 42.115523 4.931928 -4.268890 -9.115304 -6.611217 4.190190 12.135821 40.509192 1.285121 -2.651596 8.162844 3.226500 -11.053000 -32.458900 -11.079166 32.737845 -27.637750 -5.942961 -13.124739 42.551908 1.416907 -7.416143 10.194296 -2.215200 9.300600 -26.740300 -0.812415 -4.191462 11.907049 6.279841 -1.778509 -5.147517 10.434796 -5.888363 11.780276 4.459500 -2.773700 3.768800 -81.278823 -15.919014 61.045008 148.604616 -41.810640 -109.128782 0.469129 -0.343917 -42.519656 -7.125000 0.000000 0.000000 64.761199 6.889887 19.447240 -148.926793 42.512961 -109.553195 -1.078348 2.232906 2.904771 7.125000 0.000000 0.000000 
-2.416693 17.013098 3.480721 7.623010 42.361438 5.127448 -3.957126 -9.715159 -6.028167 3.954880 11.970375 39.850939 1.805391 -4.530319 7.978181 3.312600 -11.184700 -32.905500 -10.955019 33.019827 -27.396158 -5.995308 -13.202070 43.120402 0.946916 -5.633797 8.452318 -2.108700 9.088900 -26.073700 -0.826490 -4.398078 11.782058 6.464361 -1.896448 -5.007495 10.426664 -5.730136 11.928401 4.484200 -2.688400 3.856400 -81.424650 -15.061430 60.797378 148.485200 -41.943580 -109.053898 0.467573 -0.341680 -42.468476 -7.125000 0.000000 0.000000 65.749059 5.559153 20.148217 -148.736609 42.802382 -109.428728 -1.043507 2.309219 3.003578 7.125000 0.000000 0.000000 
